<svg width="25" height="33" viewBox="0 0 25 33" fill="none" xmlns="http://www.w3.org/2000/svg">
<path d="M12.3264 0L12.1958 0.0426252L1.08472 2.62075L0 2.87925V30.723L1.12917 30.8949L12.2403 32.9574L12.3694 33H15.2778V0H12.3264ZM18.0556 2.75V5.5H22.2222V27.5H18.0556V30.25H25V2.75H18.0556ZM12.5 2.79263V30.25L2.77778 28.4446V5.02838L12.5 2.79263ZM10.2 15.125C9.69028 15.125 9.24444 15.7437 9.24444 16.5C9.24444 17.2563 9.68889 17.875 10.2 17.875C10.7111 17.875 11.1111 17.2563 11.1111 16.5C11.1111 15.7437 10.7083 15.125 10.2 15.125Z" fill="#F5F5F5"/>
</svg>
