<svg width="85" height="59" viewBox="0 0 85 59" fill="none" xmlns="http://www.w3.org/2000/svg">
<path d="M72.8158 42.5C42.3421 42.5 59.1722 42.5 42.3421 42.5C25.5119 42.5 42.3421 42.5 11.8684 42.5C11.8684 25.5826 25.5119 11.8684 42.3421 11.8684C59.1722 11.8684 72.8158 25.5826 72.8158 42.5Z" fill="#FF7E46"/>
<path d="M78.5 42.5C78.5 22.6177 62.3822 6.5 42.5 6.5C22.6177 6.5 6.5 22.6177 6.5 42.5" stroke="#FFCC22" stroke-miterlimit="4.13357" stroke-dasharray="8 8"/>
<path d="M84.5 42.5C84.5 19.304 65.696 0.5 42.5 0.5C19.304 0.5 0.5 19.304 0.5 42.5" stroke="#FFCC22" stroke-miterlimit="4.13357" stroke-dasharray="17 17"/>
<path d="M72.8158 42.5L50.5728 46.7646L42.3421 58.2895L34.1114 46.7646L11.8684 42.5L34.1114 38.2354L42.3421 26.7105L50.5728 38.2354L72.8158 42.5Z" fill="#F5F5F5"/>
</svg>
